<svg width="18" height="16" viewBox="0 0 18 16" fill="none" xmlns="http://www.w3.org/2000/svg">
<path d="M8.86091 5.05263L11.4545 7.71368V7.57895C11.4545 6.90893 11.1959 6.26635 10.7356 5.79257C10.2753 5.3188 9.65099 5.05263 9 5.05263H8.86091ZM5.34273 5.72632L6.61091 7.03158C6.57 7.20842 6.54545 7.38526 6.54545 7.57895C6.54545 8.24897 6.80406 8.89155 7.26437 9.36532C7.72469 9.8391 8.34901 10.1053 9 10.1053C9.18 10.1053 9.36 10.08 9.53182 10.0379L10.8 11.3432C10.2518 11.6211 9.64636 11.7895 9 11.7895C7.91502 11.7895 6.87448 11.3459 6.10729 10.5562C5.3401 9.76661 4.90909 8.69565 4.90909 7.57895C4.90909 6.91368 5.07273 6.29053 5.34273 5.72632ZM0.818182 1.06947L2.68364 2.98947L3.05182 3.36842C1.70182 4.46316 0.638182 5.89474 0 7.57895C1.41545 11.2758 4.90909 13.8947 9 13.8947C10.2682 13.8947 11.4791 13.6421 12.5836 13.1874L12.9355 13.5411L15.3245 16L16.3636 14.9305L1.85727 0M9 3.36842C10.085 3.36842 11.1255 3.81203 11.8927 4.60166C12.6599 5.39128 13.0909 6.46225 13.0909 7.57895C13.0909 8.1179 12.9845 8.64 12.7964 9.11158L15.1936 11.5789C16.4209 10.5263 17.4027 9.14526 18 7.57895C16.5845 3.88211 13.0909 1.26316 9 1.26316C7.85455 1.26316 6.75818 1.47368 5.72727 1.85263L7.50273 3.66316C7.96909 3.47789 8.46818 3.36842 9 3.36842Z" fill="#7C7C7C"/>
</svg>
